HIERARCHY
ROOT Hips
{
	OFFSET 0.000000 0.000000 0.000000
	CHANNELS 6 Xposition Yposition Zposition Zrotation Xrotation Yrotation
	JOINT Spine1
	{
		OFFSET 0.000000 -0.000005 27.769470
		CHANNELS 6 Xposition Yposition Zposition Zrotation Xrotation Yrotation
		JOINT Neck
		{
			OFFSET 0.000000 -0.000004 22.138800
			CHANNELS 6 Xposition Yposition Zposition Zrotation Xrotation Yrotation
			JOINT Head
			{
				OFFSET 0.000000 -1.816362 14.076800
				CHANNELS 6 Xposition Yposition Zposition Zrotation Xrotation Yrotation
				End Site
				{
					OFFSET 0.000000 -0.000003 18.163557
				}
			}
		}
		JOINT LeftShoulder
		{
			OFFSET 3.657670 0.480121 17.875898
			CHANNELS 6 Xposition Yposition Zposition Zrotation Xrotation Yrotation
			JOINT LeftArm
			{
				OFFSET 13.051600 0.000000 0.000000
				CHANNELS 6 Xposition Yposition Zposition Zrotation Xrotation Yrotation
				JOINT LeftForeArm
				{
					OFFSET 25.592100 0.000000 0.000000
					CHANNELS 6 Xposition Yposition Zposition Zrotation Xrotation Yrotation
					JOINT LeftHand
					{
						OFFSET 23.784498 0.000000 0.000000
						CHANNELS 6 Xposition Yposition Zposition Zrotation Xrotation Yrotation
						End Site
						{
							OFFSET 13.622668 0.000000 0.000000
						}
					}
				}
			}
		}
		JOINT RightShoulder
		{
			OFFSET -3.607210 0.480121 17.875898
			CHANNELS 6 Xposition Yposition Zposition Zrotation Xrotation Yrotation
			JOINT RightArm
			{
				OFFSET -13.051600 0.000000 0.000000
				CHANNELS 6 Xposition Yposition Zposition Zrotation Xrotation Yrotation
				JOINT RightForeArm
				{
					OFFSET -25.592100 0.000000 0.000000
					CHANNELS 6 Xposition Yposition Zposition Zrotation Xrotation Yrotation
					JOINT RightHand
					{
						OFFSET -23.784504 0.000000 0.000000
						CHANNELS 6 Xposition Yposition Zposition Zrotation Xrotation Yrotation
						End Site
						{
							OFFSET -13.622668 0.000000 0.000000
						}
					}
				}
			}
		}
	}
	JOINT LeftUpLeg
	{
		OFFSET 9.081800 0.000000 0.000000
		CHANNELS 6 Xposition Yposition Zposition Zrotation Xrotation Yrotation
		JOINT LeftLeg
		{
			OFFSET 0.000000 0.000006 -38.194901
			CHANNELS 6 Xposition Yposition Zposition Zrotation Xrotation Yrotation
			JOINT LeftFoot
			{
				OFFSET 0.000000 0.000007 -40.043003
				CHANNELS 6 Xposition Yposition Zposition Zrotation Xrotation Yrotation
				JOINT LeftToeBase
				{
					OFFSET 0.000000 -13.622698 -5.903168
					CHANNELS 6 Xposition Yposition Zposition Zrotation Xrotation Yrotation
					End Site
					{
						OFFSET 0.000000 -3.632712 0.000000
					}
				}
			}
		}
	}
	JOINT RightUpLeg
	{
		OFFSET -9.081800 0.000000 0.000000
		CHANNELS 6 Xposition Yposition Zposition Zrotation Xrotation Yrotation
		JOINT RightLeg
		{
			OFFSET 0.000000 0.000006 -38.194901
			CHANNELS 6 Xposition Yposition Zposition Zrotation Xrotation Yrotation
			JOINT RightFoot
			{
				OFFSET 0.000000 0.000007 -40.043003
				CHANNELS 6 Xposition Yposition Zposition Zrotation Xrotation Yrotation
				JOINT RightToeBase
				{
					OFFSET 0.000000 -13.622698 -5.903168
					CHANNELS 6 Xposition Yposition Zposition Zrotation Xrotation Yrotation
					End Site
					{
						OFFSET 0.000000 -3.632712 0.000000
					}
				}
			}
		}
	}
}
MOTION
Frames: 4
Frame Time: 0.016667
-7.165370 -13.114703 71.829742 -0.621536 16.850734 -1.078031 0.000000 -0.000007 27.769474 -4.371894 -14.000905 -4.844053 0.000002 -0.000005 22.138800 4.063626 5.328002 -3.195301 -0.000001 -1.816357 14.076800 4.935535 2.391736 4.583144 3.657670 0.480119 17.875895 0.170649 -6.841332 -22.066449 13.051593 -0.000003 0.000005 -8.387617 -10.447518 8.610932 25.592102 -0.000002 0.000002 0.194240 -9.993146 0.424082 23.784494 0.000000 -0.000000 16.999810 -10.040682 -0.318156 -3.607211 0.480120 17.875889 -7.495228 -1.451188 16.518913 -13.051605 -0.000003 0.000009 18.861875 13.143913 -11.274890 -25.592100 -0.000005 -0.000017 84.554060 42.759136 40.149737 -23.784510 -0.000005 0.000009 1.952955 8.378063 34.217622 9.081801 0.000002 0.000008 14.667841 -39.133460 -22.176398 -0.000002 0.000006 -38.194897 11.146832 41.459262 10.327483 -0.000002 0.000010 -40.043011 18.556036 -4.029687 7.018729 0.000000 -13.622695 -5.903167 0.000000 -0.000001 -0.000001 -9.081801 -0.000001 0.000005 9.911428 -28.436062 38.864295 -0.000001 0.000007 -38.194904 -14.174102 40.462051 -27.241766 0.000005 0.000012 -40.043003 -26.011944 -13.584492 -12.911099 -0.000000 -13.622703 -5.903168 -0.000001 0.000001 -0.000001 
-7.166235 -13.115214 71.825638 -0.616781 16.852524 -1.075629 -0.000001 -0.000003 27.769468 -4.372858 -13.997412 -4.838635 0.000000 -0.000006 22.138807 4.068103 5.334946 -3.195168 -0.000002 -1.816359 14.076797 4.938373 2.373750 4.564614 3.657671 0.480120 17.875904 0.170672 -6.836306 -22.072093 13.051595 -0.000002 -0.000007 -8.382042 -10.428524 8.624459 25.592096 -0.000001 -0.000003 0.178245 -10.004594 0.413867 23.784506 0.000001 0.000007 17.011945 -10.049040 -0.297473 -3.607211 0.480120 17.875891 -7.493949 -1.457597 16.515032 -13.051600 -0.000002 -0.000000 18.853830 13.079338 -11.284486 -25.592096 -0.000005 -0.000002 84.628462 42.743993 40.057434 -23.784504 -0.000001 0.000009 1.968205 8.412272 34.193133 9.081800 0.000000 0.000005 14.654886 -39.139559 -22.181241 -0.000000 0.000009 -38.194901 11.143398 41.469015 10.320566 -0.000000 0.000005 -40.043007 18.553553 -4.043218 7.042881 0.000001 -13.622693 -5.903167 0.000000 -0.000001 -0.000003 -9.081800 0.000000 0.000000 9.867378 -28.468645 38.838126 0.000001 0.000007 -38.194901 -14.139103 40.473085 -27.222158 0.000001 0.000011 -40.043011 -25.987594 -13.604806 -12.909081 0.000003 -13.622696 -5.903168 0.000002 -0.000000 -0.000001 
-7.168736 -13.112933 71.824768 -0.618042 16.856581 -1.069772 0.000001 -0.000004 27.769470 -4.377166 -13.995562 -4.844126 0.000001 -0.000001 22.138815 4.070793 5.373143 -3.125469 -0.000001 -1.816359 14.076807 4.922896 2.289234 4.441458 3.657670 0.480124 17.875910 0.162183 -6.840500 -22.068100 13.051593 -0.000003 0.000001 -8.366211 -10.368591 8.647942 25.592102 0.000003 0.000020 0.146819 -10.065313 0.390986 23.784498 0.000004 -0.000008 17.003201 -10.116035 -0.341312 -3.607210 0.480122 17.875898 -7.478200 -1.469867 16.544275 -13.051598 -0.000004 -0.000009 18.846112 13.030486 -11.335527 -25.592100 -0.000011 -0.000013 84.684128 42.739642 39.986748 -23.784510 0.000001 0.000010 1.962360 8.444444 34.195888 9.081801 0.000001 0.000002 14.643130 -39.148189 -22.192038 -0.000003 0.000004 -38.194901 11.161815 41.474200 10.308937 -0.000002 0.000009 -40.043015 18.545878 -4.056109 7.072225 0.000002 -13.622698 -5.903168 -0.000001 -0.000000 0.000001 -9.081800 -0.000000 -0.000001 9.896125 -28.452739 38.856427 0.000003 0.000004 -38.194912 -14.151870 40.468584 -27.259720 -0.000001 0.000004 -40.043007 -26.010796 -13.609584 -12.860603 0.000002 -13.622696 -5.903167 0.000000 -0.000002 0.000000 
-7.173736 -13.111458 71.823616 -0.611829 16.858647 -1.063546 0.000000 -0.000005 27.769461 -4.389354 -13.996169 -4.852169 0.000001 -0.000006 22.138802 4.075094 5.387784 -3.113970 0.000001 -1.816363 14.076819 4.923970 2.273814 4.420843 3.657671 0.480121 17.875896 0.163982 -6.837439 -22.063396 13.051602 -0.000002 0.000005 -8.372321 -10.325597 8.664833 25.592100 0.000002 -0.000005 0.139441 -10.103483 0.378489 23.784502 -0.000000 0.000003 17.022320 -10.155691 -0.351348 -3.607210 0.480121 17.875904 -7.484659 -1.457110 16.528477 -13.051602 -0.000006 0.000001 18.853624 13.031208 -11.312944 -25.592100 -0.000007 -0.000008 84.647805 42.736057 40.022757 -23.784517 0.000004 0.000012 1.967233 8.426694 34.188935 9.081801 0.000002 0.000002 14.617421 -39.153694 -22.211697 0.000001 0.000007 -38.194897 11.161939 41.477662 10.311398 0.000002 0.000005 -40.043011 18.558406 -4.041735 7.027526 0.000001 -13.622698 -5.903167 -0.000003 -0.000004 -0.000003 -9.081801 -0.000000 -0.000000 9.875429 -28.458046 38.846370 0.000003 0.000003 -38.194904 -14.151514 40.466436 -27.277098 0.000004 0.000006 -40.043003 -26.020494 -13.609604 -12.896873 -0.000001 -13.622698 -5.903168 0.000000 -0.000001 -0.000001 
